# xmcd
#
# Track frame offsets:
#	150
#	14851
#	27419
#	47351
#	64168
#	77651
#	91160
#	103303
#	114831
#	129161
#	144277
#	154940
#	174962
#	194382
#	208747
#	225886
#	237841
#	256324
#
# Disc length: 3606 seconds
#
# Revision: 1
# Processed by: cddbd v1.5.2PL0 Copyright (c) Steve Scherf et al.
# Submitted via: audiograbber 1.83.01
#
DISCID=e30e1412
DTITLE=ICMAG - ICMAG 2000-07
DYEAR=2000
DGENRE=Country
TTITLE0=Committed To Parkview - Rye W. Henderson
TTITLE1=There´s A Little Bit Of Everything In Texas - Bob Browning
TTITLE2=Still Holding On - Jim Russ
TTITLE3=Ballad Of George - Geoirge Day
TTITLE4=Rev My Engine - Ron Jordan
TTITLE5=Don´t Drop Your Hat - Dorene
TTITLE6=I´ve Been Everywhere - Suzie Merwine
TTITLE7=Tie Me Up - Kae Lynette
TTITLE8=Leaving Alabama - Anni Filt
TTITLE9=She´ll Get By - Joyce Meré
TTITLE10=Thanks Again - Bob Norman
TTITLE11=If I Was An Angel - Beth Singer
TTITLE12=Tribute To A Freind - T Jae Christian
TTITLE13=Gospel Train - Morgan and Morgan
TTITLE14=Mountain Dew - Gunsmoke
TTITLE15=Stand By Your Man - Bente´ Boe (13 År Gammel)
TTITLE16=Gee How I Miss You - Twango
TTITLE17=Sehnsucht - Tom J. Anders
EXTD=
EXTT0=
EXTT1=
EXTT2=
EXTT3=
EXTT4=
EXTT5=
EXTT6=
EXTT7=
EXTT8=
EXTT9=
EXTT10=
EXTT11=
EXTT12=
EXTT13=
EXTT14=
EXTT15=
EXTT16=
EXTT17=
PLAYORDER=
